# xmcd
#
# Track frame offsets:
#	150
#	22164
#	36200
#	56754
#	78010
#	95075
#	112050
#	130878
#	147302
#	172764
#	193168
#	211798
#
# Disc length: 3001 seconds
#
# Revision: 1
# Processed by: cddbd v1.5.2PL0 Copyright (c) Steve Scherf et al.
# Submitted via: audiograbber 1.83.01
#
DISCID=a80bb70c
DTITLE=Justin Townes Earle - The Saint Of Lost Causes
DYEAR=2019
DGENRE=Country
TTITLE0=The Saint Of Lost Causes
TTITLE1=Ain't Got No Money
TTITLE2=Mornings In Memphis
TTITLE3=Don't Drink The Water
TTITLE4=Frightened By The Sound
TTITLE5=Flint City Shake It
TTITLE6=Over Alameda
TTITLE7=Pacific Northwestern Blues
TTITLE8=Appalachian Nightmare
TTITLE9=Say Baby
TTITLE10=Ahi Esta Mi Nina
TTITLE11=Talking To Myself
EXTD=
EXTT0=
EXTT1=
EXTT2=
EXTT3=
EXTT4=
EXTT5=
EXTT6=
EXTT7=
EXTT8=
EXTT9=
EXTT10=
EXTT11=
PLAYORDER=
